<svg width="414" height="112" viewBox="0 0 414 112" fill="none" xmlns="http://www.w3.org/2000/svg">
<path opacity="0.6" d="M137.397 44V27.256H129.781V44H124.069V5.47198H129.781V21.824H137.397V5.47198H143.109V44H137.397ZM146.22 44V5.47198H161.396V10.68H151.988V21.936H160.22V27.144H151.988V38.792H161.396V44H146.22ZM176.946 44L173.418 29.664H173.026H169.106V44H163.394V5.47198H173.53C175.994 5.47198 177.842 5.93901 179.074 6.87201C180.306 7.80501 181.108 9.13099 181.482 10.848C181.892 12.528 182.098 14.768 182.098 17.568C182.098 20.443 181.874 22.757 181.426 24.512C180.978 26.267 180.044 27.573 178.626 28.432L182.826 44H176.946ZM172.634 24.624C173.791 24.624 174.612 24.419 175.098 24.008C175.62 23.597 175.956 22.925 176.106 21.992C176.292 21.059 176.386 19.603 176.386 17.624C176.386 15.683 176.292 14.245 176.106 13.312C175.956 12.379 175.62 11.707 175.098 11.296C174.575 10.885 173.754 10.68 172.634 10.68H169.106V24.624H172.634ZM184.563 44V5.47198H190.275V44H184.563ZM202.77 44.448C199.634 44.448 197.375 43.907 195.994 42.824C194.65 41.741 193.791 39.931 193.418 37.392C193.082 34.853 192.914 30.635 192.914 24.736C192.914 18.837 193.082 14.619 193.418 12.08C193.791 9.54099 194.65 7.73101 195.994 6.64801C197.375 5.56501 199.634 5.02399 202.77 5.02399C205.943 5.02399 208.202 5.56501 209.546 6.64801C210.927 7.73101 211.786 9.54099 212.122 12.08C212.495 14.619 212.682 18.837 212.682 24.736C212.682 30.635 212.495 34.853 212.122 37.392C211.786 39.931 210.927 41.741 209.546 42.824C208.202 43.907 205.943 44.448 202.77 44.448ZM202.77 39.24C204.151 39.24 205.103 38.997 205.626 38.512C206.148 38.027 206.503 36.832 206.69 34.928C206.876 33.024 206.97 29.627 206.97 24.736C206.97 19.845 206.876 16.448 206.69 14.544C206.503 12.64 206.148 11.445 205.626 10.96C205.103 10.475 204.151 10.232 202.77 10.232C201.388 10.232 200.436 10.475 199.914 10.96C199.428 11.445 199.092 12.64 198.906 14.544C198.719 16.448 198.626 19.845 198.626 24.736C198.626 29.627 198.719 33.024 198.906 34.928C199.092 36.832 199.428 38.027 199.914 38.512C200.436 38.997 201.388 39.24 202.77 39.24ZM218.786 44V10.736H212.458V5.47198H230.826V10.736H224.498V44H218.786ZM256.157 44L252.237 14.6H251.957L248.037 44H240.141L235.381 5.47198H241.149L244.229 37.28H244.621L248.709 5.47198H255.709L259.853 37.28H260.245L263.213 5.47198H268.813L263.997 44H256.157ZM282.743 44L281.119 34.76H273.615L272.047 44H266.335L273.279 5.47198H281.567L288.511 44H282.743ZM277.535 11.744H277.199L274.231 29.664H280.503L277.535 11.744ZM291.311 44V10.736H284.983V5.47198H303.351V10.736H297.023V44H291.311ZM308.43 44V10.736H302.102V5.47198H320.47V10.736H314.142V44H308.43Z" fill="white"/>
<path d="M135.778 109V66.896H123.466V56.712H160.022V66.896H147.634V109H135.778ZM159.782 109V56.712H191.246V66.516H171.562V77.688H188.434V87.492H171.562V99.196H191.246V109H159.782ZM223.197 108.316C221.779 108.671 219.98 108.975 217.801 109.228C215.623 109.481 213.571 109.608 211.645 109.608C205.92 109.608 201.689 108.823 198.953 107.252C196.268 105.631 194.469 102.996 193.557 99.348C192.696 95.7 192.265 90.203 192.265 82.856C192.265 75.611 192.721 70.164 193.633 66.516C194.545 62.817 196.344 60.157 199.029 58.536C201.765 56.915 205.971 56.104 211.645 56.104C213.621 56.104 215.648 56.231 217.725 56.484C219.853 56.737 221.601 57.067 222.969 57.472V66.592C218.663 66.136 215.8 65.908 214.381 65.908C210.936 65.908 208.555 66.263 207.237 66.972C205.971 67.631 205.16 69.024 204.805 71.152C204.451 73.229 204.273 77.131 204.273 82.856C204.273 88.581 204.451 92.508 204.805 94.636C205.16 96.713 205.971 98.107 207.237 98.816C208.555 99.475 210.936 99.804 214.381 99.804C217.32 99.804 220.259 99.576 223.197 99.12V108.316ZM250.423 109V87.872H236.439V109H224.583V56.712H236.439V77.536H250.423V56.712H262.279V109H250.423ZM305.969 108.316C304.55 108.671 302.752 108.975 300.573 109.228C298.394 109.481 296.342 109.608 294.417 109.608C288.692 109.608 284.461 108.823 281.725 107.252C279.04 105.631 277.241 102.996 276.329 99.348C275.468 95.7 275.037 90.203 275.037 82.856C275.037 75.611 275.493 70.164 276.405 66.516C277.317 62.817 279.116 60.157 281.801 58.536C284.537 56.915 288.742 56.104 294.417 56.104C296.393 56.104 298.42 56.231 300.497 56.484C302.625 56.737 304.373 57.067 305.741 57.472V66.592C301.434 66.136 298.572 65.908 297.153 65.908C293.708 65.908 291.326 66.263 290.009 66.972C288.742 67.631 287.932 69.024 287.577 71.152C287.222 73.229 287.045 77.131 287.045 82.856C287.045 88.581 287.222 92.508 287.577 94.636C287.932 96.713 288.742 98.107 290.009 98.816C291.326 99.475 293.708 99.804 297.153 99.804C300.092 99.804 303.03 99.576 305.969 99.12V108.316ZM307.507 109V56.712H319.287V98.816H336.615V109H307.507ZM373.233 56.712V85.592C373.233 92.584 372.879 97.651 372.169 100.792C371.46 103.933 369.839 106.188 367.305 107.556C364.772 108.924 360.617 109.608 354.841 109.608C349.065 109.608 344.911 108.924 342.377 107.556C339.844 106.188 338.197 103.933 337.437 100.792C336.728 97.6 336.373 92.533 336.373 85.592V56.712H348.229V88.708C348.229 92.407 348.331 94.965 348.533 96.384C348.787 97.803 349.344 98.74 350.205 99.196C351.067 99.652 352.612 99.88 354.841 99.88C357.071 99.88 358.591 99.652 359.401 99.196C360.263 98.74 360.795 97.828 360.997 96.46C361.251 95.041 361.377 92.457 361.377 88.708V56.712H373.233ZM376.468 56.712H398.736C403.397 56.712 406.868 57.801 409.148 59.98C411.479 62.159 412.644 65.452 412.644 69.86C412.644 73.559 411.985 76.371 410.668 78.296C409.351 80.221 407.299 81.513 404.512 82.172V82.476C407.552 83.185 409.731 84.477 411.048 86.352C412.416 88.227 413.1 91.14 413.1 95.092C413.1 99.652 411.985 103.123 409.756 105.504C407.527 107.835 403.853 109 398.736 109H376.468V56.712ZM394.936 77.764C396.557 77.764 397.773 77.612 398.584 77.308C399.395 77.004 399.952 76.472 400.256 75.712C400.56 74.901 400.712 73.711 400.712 72.14C400.712 70.468 400.56 69.252 400.256 68.492C400.003 67.732 399.471 67.225 398.66 66.972C397.9 66.668 396.659 66.516 394.936 66.516H388.172V77.764H394.936ZM395.24 99.196C396.963 99.196 398.204 99.044 398.964 98.74C399.775 98.436 400.332 97.904 400.636 97.144C400.94 96.333 401.092 95.067 401.092 93.344C401.092 91.621 400.94 90.355 400.636 89.544C400.332 88.733 399.775 88.176 398.964 87.872C398.153 87.568 396.912 87.416 395.24 87.416H388.172V99.196H395.24Z" fill="white"/>
<path d="M99.429 53.267L58.736 12.331C57.233 10.819 54.789 10.812 53.277 12.315L12.342 53.008C10.83 54.511 10.823 56.955 12.326 58.467L53.019 99.402C54.522 100.914 56.966 100.921 58.477 99.418L99.413 58.725C100.925 57.222 100.932 54.778 99.429 53.267Z" stroke="#009AE8" stroke-width="5" stroke-miterlimit="10"/>
<path d="M76.296 54.577L57.3029 35.471C56.5519 34.715 55.3299 34.711 54.5739 35.463L35.468 54.456C34.712 55.207 34.7079 56.429 35.4599 57.185L54.453 76.291C55.204 77.047 56.4259 77.05 57.1819 76.299L76.288 57.306C77.044 56.554 77.047 55.333 76.296 54.577Z" stroke="#009AE8" stroke-width="5" stroke-miterlimit="10"/>
<path d="M24.104 88.307L31.886 80.524" stroke="#009AE8" stroke-width="5" stroke-miterlimit="10" stroke-linecap="round"/>
<path d="M30.5889 94.792L38.3709 87.01" stroke="#009AE8" stroke-width="5" stroke-miterlimit="10" stroke-linecap="round"/>
<path d="M37.074 101.277L44.856 93.495" stroke="#009AE8" stroke-width="5" stroke-miterlimit="10" stroke-linecap="round"/>
<path d="M44.208 108.411L51.99 100.629" stroke="#009AE8" stroke-width="5" stroke-miterlimit="10" stroke-linecap="round"/>
<path d="M3.35107 67.554L11.1331 59.772" stroke="#009AE8" stroke-width="5" stroke-miterlimit="10" stroke-linecap="round"/>
<path d="M10.4849 74.687L18.2669 66.905" stroke="#009AE8" stroke-width="5" stroke-miterlimit="10" stroke-linecap="round"/>
<path d="M16.97 81.173L24.752 73.391" stroke="#009AE8" stroke-width="5" stroke-miterlimit="10" stroke-linecap="round"/>
<path d="M80.228 32.183L88.6581 23.752" stroke="#009AE8" stroke-width="5" stroke-miterlimit="10" stroke-linecap="round"/>
<path d="M86.7129 38.668L95.1429 30.237" stroke="#009AE8" stroke-width="5" stroke-miterlimit="10" stroke-linecap="round"/>
<path d="M93.198 45.153L101.629 36.723" stroke="#009AE8" stroke-width="5" stroke-miterlimit="10" stroke-linecap="round"/>
<path d="M100.332 52.287L108.762 43.856" stroke="#009AE8" stroke-width="5" stroke-miterlimit="10" stroke-linecap="round"/>
<path d="M59.4751 11.431L67.9061 3" stroke="#009AE8" stroke-width="5" stroke-miterlimit="10" stroke-linecap="round"/>
<path d="M66.6089 18.564L75.0389 10.133" stroke="#009AE8" stroke-width="5" stroke-miterlimit="10" stroke-linecap="round"/>
<path d="M73.094 25.049L81.525 16.618" stroke="#009AE8" stroke-width="5" stroke-miterlimit="10" stroke-linecap="round"/>
<path d="M31.534 32.183L23.104 23.752" stroke="#009AE8" stroke-width="5" stroke-miterlimit="10" stroke-linecap="round"/>
<path d="M38.6678 25.049L30.2368 16.618" stroke="#009AE8" stroke-width="5" stroke-miterlimit="10" stroke-linecap="round"/>
<path d="M45.1532 18.564L36.7231 10.133" stroke="#009AE8" stroke-width="5" stroke-miterlimit="10" stroke-linecap="round"/>
<path d="M52.287 11.431L43.856 3" stroke="#009AE8" stroke-width="5" stroke-miterlimit="10" stroke-linecap="round"/>
<path d="M11.43 52.287L3 43.856" stroke="#009AE8" stroke-width="5" stroke-miterlimit="10" stroke-linecap="round"/>
<path d="M18.5638 45.153L10.1328 36.723" stroke="#009AE8" stroke-width="5" stroke-miterlimit="10" stroke-linecap="round"/>
<path d="M25.0491 38.668L16.6191 30.237" stroke="#009AE8" stroke-width="5" stroke-miterlimit="10" stroke-linecap="round"/>
<path d="M88.0101 88.658L79.5791 80.228" stroke="#009AE8" stroke-width="5" stroke-miterlimit="10" stroke-linecap="round"/>
<path d="M95.1429 81.524L86.7129 73.094" stroke="#009AE8" stroke-width="5" stroke-miterlimit="10" stroke-linecap="round"/>
<path d="M101.629 75.039L93.198 66.608" stroke="#009AE8" stroke-width="5" stroke-miterlimit="10" stroke-linecap="round"/>
<path d="M108.762 67.905L100.332 59.475" stroke="#009AE8" stroke-width="5" stroke-miterlimit="10" stroke-linecap="round"/>
<path d="M67.9061 108.762L59.4751 100.332" stroke="#009AE8" stroke-width="5" stroke-miterlimit="10" stroke-linecap="round"/>
<path d="M75.0389 101.629L66.6089 93.198" stroke="#009AE8" stroke-width="5" stroke-miterlimit="10" stroke-linecap="round"/>
<path d="M81.525 95.143L73.094 86.712" stroke="#009AE8" stroke-width="5" stroke-miterlimit="10" stroke-linecap="round"/>
</svg>
